<svg xmlns="http://www.w3.org/2000/svg" width="88" height="88" viewBox="0 0 88 88">
    <defs>
        <style>
            .cls-1{fill:#fff}.cls-2{fill:#292b2e}
        </style>
    </defs>
    <g id="Group_19" data-name="Group 19" transform="translate(-.463 -.001)">
        <circle id="Ellipse_2" cx="44" cy="44" r="44" class="cls-1" data-name="Ellipse 2" transform="translate(.463 .001)"/>
        <g id="black-back-closed-envelope-shape" transform="translate(20.391 25.757)">
            <g id="Group_16" data-name="Group 16">
                <path id="Path_7" d="M58.38 337.909a4.024 4.024 0 0 0 2.755-1.04l-13.34-13.341-.923.664q-1.5 1.1-2.431 1.721a14.976 14.976 0 0 1-2.483 1.261 7.568 7.568 0 0 1-2.891.644h-.052a7.566 7.566 0 0 1-2.891-.644 14.928 14.928 0 0 1-2.483-1.261q-.933-.617-2.431-1.721c-.278-.2-.587-.428-.921-.668L16.946 336.87a4.026 4.026 0 0 0 2.756 1.04z" class="cls-2" data-name="Path 7" transform="translate(-15.497 -300.912)"/>
                <path id="Path_8" d="M2.654 200.841A13.931 13.931 0 0 1 0 198.555v20.3l11.758-11.758q-3.528-2.466-9.104-6.256z" class="cls-2" data-name="Path 8" transform="translate(0 -186.626)"/>
                <path id="Path_9" d="M422.435 200.841q-5.369 3.634-9.126 6.257l11.754 11.754v-20.3a14.5 14.5 0 0 1-2.628 2.289z" class="cls-2" data-name="Path 9" transform="translate(-377.976 -186.626)"/>
                <path id="Path_10" d="M42.888 59.013H4.21a3.752 3.752 0 0 0-3.11 1.366 5.3 5.3 0 0 0-1.09 3.416 6.14 6.14 0 0 0 1.445 3.587 13.036 13.036 0 0 0 3.074 3.035q.893.631 5.387 3.745c1.617 1.121 3.024 2.1 4.232 2.94a736.73 736.73 0 0 1 2.652 1.855l.392.279.725.522q.854.618 1.419 1t1.367.854a7.972 7.972 0 0 0 1.511.709 4.181 4.181 0 0 0 1.314.236h.052a4.182 4.182 0 0 0 1.314-.236 7.954 7.954 0 0 0 1.511-.709q.8-.473 1.367-.854t1.419-1l.724-.522.393-.28 2.659-1.848 9.638-6.692a12.5 12.5 0 0 0 3.206-3.232 6.952 6.952 0 0 0 1.287-3.967 4.239 4.239 0 0 0-4.2-4.2z" class="cls-2" data-name="Path 10" transform="translate(-.005 -59.013)"/>
            </g>
        </g>
    </g>
</svg>
