<svg xmlns="http://www.w3.org/2000/svg" width="88" height="88" viewBox="0 0 88 88">
    <defs>
        <style>
            .cls-1{fill:#fff}.cls-2{fill:#292b2e}
        </style>
    </defs>
    <g id="Group_18" data-name="Group 18" transform="translate(.46 -.001)">
        <circle id="Ellipse_3" cx="44" cy="44" r="44" class="cls-1" data-name="Ellipse 3" transform="translate(-.46 .001)"/>
        <g id="telephone" transform="translate(23.611 23.611)">
            <g id="Group_17" data-name="Group 17">
                <path id="Path_11" d="M31.239 69.37a2.878 2.878 0 0 0-4.351 0c-1.017 1.009-2.035 2.018-3.035 3.043a.6.6 0 0 1-.838.154c-.658-.359-1.359-.65-1.992-1.043a31.56 31.56 0 0 1-7.608-6.924 18.026 18.026 0 0 1-2.727-4.368.626.626 0 0 1 .154-.8c1.017-.983 2.009-1.992 3.009-3a2.89 2.89 0 0 0-.009-4.454c-.8-.8-1.59-1.59-2.385-2.394-.821-.821-1.633-1.65-2.462-2.462a2.9 2.9 0 0 0-4.351.009c-1.026 1.009-2.009 2.043-3.052 3.035A4.954 4.954 0 0 0 .036 53.5a14.162 14.162 0 0 0 1.094 6.1A37.039 37.039 0 0 0 7.7 70.55a40.682 40.682 0 0 0 13.477 10.541 19.485 19.485 0 0 0 7.463 2.171 5.47 5.47 0 0 0 4.693-1.787c.872-.975 1.855-1.864 2.778-2.8a2.908 2.908 0 0 0 .017-4.428q-2.435-2.447-4.889-4.877z" class="cls-2" data-name="Path 11" transform="translate(-.006 -42.193)"/>
                <path id="Path_12" d="M247.121 108.157l3.155-.539A14.16 14.16 0 0 0 238.3 96l-.445 3.172a10.943 10.943 0 0 1 9.267 8.985z" class="cls-2" data-name="Path 12" transform="translate(-217.521 -87.793)"/>
                <path id="Path_13" d="M256.535 6.651A23.26 23.26 0 0 0 243.2 0l-.445 3.172a20.3 20.3 0 0 1 17.175 16.645l3.155-.539a23.431 23.431 0 0 0-6.55-12.627z" class="cls-2" data-name="Path 13" transform="translate(-222.002)"/>
            </g>
        </g>
    </g>
</svg>
